# xmcd
#
# Track frame offsets:
#	150
#	12768
#	29071
#	55097
#	71324
#	91698
#	107355
#	116574
#	144967
#	164949
#	183129
#	202770
#	231653
#	248697
#	266247
#	283594
#	307303
#
# Disc length: 4445 seconds
#
# Revision: 0
# Processed by: cddbd v1.4PL0 Copyright (c) Steve Scherf et al.
# Submitted via: EasyCDDAExtractor 4.5.0.2
#
DISCID=ed115b11
DTITLE=SEXY 3
DYEAR=1900
DGENRE=Acoustic
TTITLE0=CHRISTINE  -  MISS X
TTITLE1=MARK and SALLY   -  ALLO FEAT. MISS BEATRICE
TTITLE2=CIRCLES and CIGARETTES  -  AWARE
TTITLE3=SUNSET BOULEVARD feat KATJA KEAN  -  FILUR
TTITLE4=A MAN AND A WOMAN  -  45 DIP
TTITLE5=ANONIMO VEZIANO  -  MONTEFIORI COCTAIL
TTITLE6=PIN STRIPES MACHINE GUNJERRY VAN ROOYEN
TTITLE7=SUMMER TIME  -  URBAN DWELLERS
TTITLE8=LIFE IN MONO  -  MONO
TTITLE9=SERRANO ANTHEM(AMOR/AMOR)  -  SVEN VAN HEES
TTITLE10=DO YOU L0VE ME TOO  -  NEW YORK GROOVE
TTITLE11=HE DID IT  -  HARLEY and MUSCLE feat DAWN TALLMAN
TTITLE12=DANCE NAKED UNDER PALMTREES  -  MO' HORIZONS
TTITLE13=SMOOTH TRUMTATION  -  TRUMPETMAN
TTITLE14=FLYIN AWAY  -  MO' HORIZONS
TTITLE15=EVERYTIME (A man called Adams Baleatric Remix)  -  LUSTRAL
TTITLE16=NEW YORK IS IN CHINA  -  JERRY VAN ROYEN
EXTD=
EXTT0=
EXTT1=
EXTT2=
EXTT3=
EXTT4=
EXTT5=
EXTT6=
EXTT7=
EXTT8=
EXTT9=
EXTT10=
EXTT11=
EXTT12=
EXTT13=
EXTT14=
EXTT15=
EXTT16=
PLAYORDER=
